<mxfile host="app.diagrams.net" agent="Mozilla/5.0 (Windows NT 10.0; Win64; x64; rv:132.0) Gecko/20100101 Firefox/132.0" version="24.8.3">
  <diagram name="Page-1" id="13e1069c-82ec-6db2-03f1-153e76fe0fe0">
    <mxGraphModel grid="1" page="1" gridSize="10" guides="1" tooltips="1" connect="1" arrows="1" fold="1" pageScale="1" pageWidth="1100" pageHeight="850" background="none" math="0" shadow="0">
      <root>
        <mxCell id="0" />
        <mxCell id="1" parent="0" />
        <mxCell id="gh0M6xjRrJusHkvIVG62-3" value="&lt;p style=&quot;margin:0px;margin-top:4px;margin-left:10px;text-align:left;&quot;&gt;&lt;b&gt;interaction&amp;nbsp;&lt;/b&gt; Flower service once or several times[Flower service once or several times]&lt;/p&gt;" style="html=1;shape=mxgraph.sysml.package;align=left;spacingLeft=5;verticalAlign=top;spacingTop=-3;labelX=480.33;html=1;overflow=fill;" vertex="1" parent="1">
          <mxGeometry x="80" y="50" width="880" height="550" as="geometry" />
        </mxCell>
        <mxCell id="7baba1c4bc27f4b0-2" value="flowerShop:FlowerShop" style="shape=umlLifeline;perimeter=lifelinePerimeter;whiteSpace=wrap;html=1;container=1;collapsible=0;recursiveResize=0;outlineConnect=0;rounded=1;shadow=0;comic=0;labelBackgroundColor=none;strokeWidth=1;fontFamily=Verdana;fontSize=12;align=center;" vertex="1" parent="1">
          <mxGeometry x="241" y="80" width="179" height="480" as="geometry" />
        </mxCell>
        <mxCell id="7baba1c4bc27f4b0-10" value="" style="html=1;points=[];perimeter=orthogonalPerimeter;rounded=0;shadow=0;comic=0;labelBackgroundColor=none;strokeWidth=1;fontFamily=Verdana;fontSize=12;align=center;" vertex="1" parent="7baba1c4bc27f4b0-2">
          <mxGeometry x="84.5" y="100" width="10" height="320" as="geometry" />
        </mxCell>
        <mxCell id="_VDTY8d82yGGQfiRo4SU-3" value="2:chooseServiceType()" style="html=1;verticalAlign=bottom;endArrow=block;labelBackgroundColor=none;fontFamily=Verdana;fontSize=12;edgeStyle=elbowEdgeStyle;elbow=vertical;" edge="1" parent="7baba1c4bc27f4b0-2" source="7baba1c4bc27f4b0-8">
          <mxGeometry x="0.0031" relative="1" as="geometry">
            <mxPoint x="-81" y="130" as="sourcePoint" />
            <mxPoint x="84.5" y="130" as="targetPoint" />
            <mxPoint as="offset" />
            <Array as="points">
              <mxPoint x="84.5" y="130" />
            </Array>
          </mxGeometry>
        </mxCell>
        <mxCell id="_VDTY8d82yGGQfiRo4SU-4" value="3:chooseTimeRange()" style="html=1;verticalAlign=bottom;endArrow=block;entryX=0;entryY=0;labelBackgroundColor=none;fontFamily=Verdana;fontSize=12;edgeStyle=elbowEdgeStyle;elbow=vertical;" edge="1" parent="7baba1c4bc27f4b0-2" source="7baba1c4bc27f4b0-8">
          <mxGeometry x="0.0062" relative="1" as="geometry">
            <mxPoint x="-76.5" y="154.67000000000002" as="sourcePoint" />
            <mxPoint x="84.5" y="154.67000000000002" as="targetPoint" />
            <mxPoint as="offset" />
          </mxGeometry>
        </mxCell>
        <mxCell id="_VDTY8d82yGGQfiRo4SU-5" value="4:chooseFrequency()" style="html=1;verticalAlign=bottom;endArrow=block;entryX=0;entryY=0;labelBackgroundColor=none;fontFamily=Verdana;fontSize=12;edgeStyle=elbowEdgeStyle;elbow=vertical;" edge="1" parent="7baba1c4bc27f4b0-2" source="7baba1c4bc27f4b0-8">
          <mxGeometry x="0.0031" relative="1" as="geometry">
            <mxPoint x="-76.5" y="180" as="sourcePoint" />
            <mxPoint x="84.5" y="180" as="targetPoint" />
            <mxPoint as="offset" />
          </mxGeometry>
        </mxCell>
        <mxCell id="YUjnZdsv4CkuaMLglvtT-24" value="" style="endArrow=classic;html=1;rounded=0;entryX=-0.143;entryY=0;entryDx=0;entryDy=0;entryPerimeter=0;exitX=0.955;exitY=0.31;exitDx=0;exitDy=0;exitPerimeter=0;" edge="1" parent="7baba1c4bc27f4b0-2" source="7baba1c4bc27f4b0-10">
          <mxGeometry width="50" height="50" relative="1" as="geometry">
            <mxPoint x="99" y="200" as="sourcePoint" />
            <mxPoint x="259.7099999999999" y="199.67000000000002" as="targetPoint" />
          </mxGeometry>
        </mxCell>
        <mxCell id="YUjnZdsv4CkuaMLglvtT-25" value="&lt;font style=&quot;font-size: 12px;&quot; face=&quot;Verdana&quot;&gt;5:&lt;font style=&quot;font-size: 12px;&quot;&gt;sendInformation&lt;/font&gt;()&lt;/font&gt;" style="edgeLabel;html=1;align=center;verticalAlign=middle;resizable=0;points=[];" connectable="0" vertex="1" parent="YUjnZdsv4CkuaMLglvtT-24">
          <mxGeometry x="0.0891" relative="1" as="geometry">
            <mxPoint y="-10" as="offset" />
          </mxGeometry>
        </mxCell>
        <mxCell id="7baba1c4bc27f4b0-3" value="Rosas Niece:User" style="shape=umlLifeline;perimeter=lifelinePerimeter;whiteSpace=wrap;html=1;container=1;collapsible=0;recursiveResize=0;outlineConnect=0;rounded=1;shadow=0;comic=0;labelBackgroundColor=none;strokeWidth=1;fontFamily=Verdana;fontSize=12;align=center;" vertex="1" parent="1">
          <mxGeometry x="450" y="80" width="115" height="480" as="geometry" />
        </mxCell>
        <mxCell id="7baba1c4bc27f4b0-13" value="" style="html=1;points=[];perimeter=orthogonalPerimeter;rounded=0;shadow=0;comic=0;labelBackgroundColor=none;strokeWidth=1;fontFamily=Verdana;fontSize=12;align=center;" vertex="1" parent="7baba1c4bc27f4b0-3">
          <mxGeometry x="52.5" y="200" width="10" height="250" as="geometry" />
        </mxCell>
        <mxCell id="_VDTY8d82yGGQfiRo4SU-11" value="&lt;font style=&quot;font-size: 12px;&quot;&gt;7:flowers&lt;/font&gt;" style="html=1;verticalAlign=bottom;endArrow=open;dashed=1;endSize=8;labelBackgroundColor=none;fontFamily=Verdana;fontSize=12;edgeStyle=elbowEdgeStyle;elbow=vertical;exitX=-0.021;exitY=0.997;exitDx=0;exitDy=0;exitPerimeter=0;" edge="1" parent="7baba1c4bc27f4b0-3" source="7baba1c4bc27f4b0-16">
          <mxGeometry x="0.0857" relative="1" as="geometry">
            <mxPoint x="62.49972972972968" y="260" as="targetPoint" />
            <Array as="points">
              <mxPoint x="94.77" y="260" />
              <mxPoint x="74.77" y="260" />
            </Array>
            <mxPoint x="323.77" y="270.186046511628" as="sourcePoint" />
            <mxPoint as="offset" />
          </mxGeometry>
        </mxCell>
        <mxCell id="YUjnZdsv4CkuaMLglvtT-4" value="10:" style="html=1;verticalAlign=bottom;endArrow=open;dashed=1;endSize=8;labelBackgroundColor=none;fontFamily=Verdana;fontSize=12;edgeStyle=elbowEdgeStyle;elbow=vertical;exitX=0;exitY=1;exitDx=0;exitDy=0;exitPerimeter=0;" edge="1" parent="7baba1c4bc27f4b0-3" source="_VDTY8d82yGGQfiRo4SU-15">
          <mxGeometry x="-0.0216" relative="1" as="geometry">
            <mxPoint x="62.5" y="360" as="targetPoint" />
            <Array as="points" />
            <mxPoint x="402.5" y="360.5060465116279" as="sourcePoint" />
            <mxPoint as="offset" />
          </mxGeometry>
        </mxCell>
        <mxCell id="_VDTY8d82yGGQfiRo4SU-25" value="11:saveInformation()" style="html=1;verticalAlign=bottom;endArrow=open;dashed=1;endSize=8;labelBackgroundColor=none;fontFamily=Verdana;fontSize=12;edgeStyle=elbowEdgeStyle;elbow=vertical;exitX=0.226;exitY=1.001;exitDx=0;exitDy=0;exitPerimeter=0;" edge="1" parent="7baba1c4bc27f4b0-3">
          <mxGeometry x="-0.0242" relative="1" as="geometry">
            <mxPoint x="-115.5" y="380" as="targetPoint" />
            <Array as="points" />
            <mxPoint x="52.5" y="380" as="sourcePoint" />
            <mxPoint as="offset" />
          </mxGeometry>
        </mxCell>
        <mxCell id="7baba1c4bc27f4b0-4" value="storage:Storage" style="shape=umlLifeline;perimeter=lifelinePerimeter;whiteSpace=wrap;html=1;container=1;collapsible=0;recursiveResize=0;outlineConnect=0;rounded=1;shadow=0;comic=0;labelBackgroundColor=none;strokeWidth=1;fontFamily=Verdana;fontSize=12;align=center;" vertex="1" parent="1">
          <mxGeometry x="600" y="80" width="150" height="480" as="geometry" />
        </mxCell>
        <mxCell id="7baba1c4bc27f4b0-16" value="" style="html=1;points=[];perimeter=orthogonalPerimeter;rounded=0;shadow=0;comic=0;labelBackgroundColor=none;strokeWidth=1;fontFamily=Verdana;fontSize=12;align=center;" vertex="1" parent="7baba1c4bc27f4b0-4">
          <mxGeometry x="70" y="130" width="10" height="130" as="geometry" />
        </mxCell>
        <mxCell id="_VDTY8d82yGGQfiRo4SU-18" value="" style="endArrow=classic;html=1;rounded=0;entryX=0;entryY=0;entryDx=0;entryDy=0;entryPerimeter=0;exitX=0.978;exitY=0.4;exitDx=0;exitDy=0;exitPerimeter=0;" edge="1" parent="7baba1c4bc27f4b0-4" target="_VDTY8d82yGGQfiRo4SU-15">
          <mxGeometry width="50" height="50" relative="1" as="geometry">
            <mxPoint x="-86.06999999999994" y="300.33" as="sourcePoint" />
            <mxPoint x="80" y="300" as="targetPoint" />
          </mxGeometry>
        </mxCell>
        <mxCell id="_VDTY8d82yGGQfiRo4SU-19" value="&lt;font style=&quot;font-size: 12px;&quot; face=&quot;Verdana&quot;&gt;8:contactDeliveryService()&lt;/font&gt;" style="edgeLabel;html=1;align=center;verticalAlign=middle;resizable=0;points=[];" connectable="0" vertex="1" parent="_VDTY8d82yGGQfiRo4SU-18">
          <mxGeometry x="0.0891" relative="1" as="geometry">
            <mxPoint y="-10" as="offset" />
          </mxGeometry>
        </mxCell>
        <mxCell id="_VDTY8d82yGGQfiRo4SU-8" value="" style="endArrow=classic;html=1;rounded=0;entryX=0.032;entryY=0.773;entryDx=0;entryDy=0;entryPerimeter=0;exitX=1.217;exitY=0.121;exitDx=0;exitDy=0;exitPerimeter=0;" edge="1" parent="7baba1c4bc27f4b0-4" source="7baba1c4bc27f4b0-13">
          <mxGeometry width="50" height="50" relative="1" as="geometry">
            <mxPoint x="-80" y="230" as="sourcePoint" />
            <mxPoint x="69.99999999999997" y="230" as="targetPoint" />
          </mxGeometry>
        </mxCell>
        <mxCell id="_VDTY8d82yGGQfiRo4SU-9" value="&lt;font style=&quot;font-size: 12px;&quot; face=&quot;Verdana&quot;&gt;6:flowersInStock()&lt;/font&gt;" style="edgeLabel;html=1;align=center;verticalAlign=middle;resizable=0;points=[];" connectable="0" vertex="1" parent="_VDTY8d82yGGQfiRo4SU-8">
          <mxGeometry x="0.0891" relative="1" as="geometry">
            <mxPoint y="-10" as="offset" />
          </mxGeometry>
        </mxCell>
        <mxCell id="7baba1c4bc27f4b0-8" value="c1:customer" style="shape=umlLifeline;perimeter=lifelinePerimeter;whiteSpace=wrap;html=1;container=1;collapsible=0;recursiveResize=0;outlineConnect=0;rounded=1;shadow=0;comic=0;labelBackgroundColor=none;strokeWidth=1;fontFamily=Verdana;fontSize=12;align=center;" vertex="1" parent="1">
          <mxGeometry x="100" y="80" width="110" height="480" as="geometry" />
        </mxCell>
        <mxCell id="7baba1c4bc27f4b0-9" value="" style="html=1;points=[];perimeter=orthogonalPerimeter;rounded=0;shadow=0;comic=0;labelBackgroundColor=none;strokeWidth=1;fontFamily=Verdana;fontSize=12;align=center;" vertex="1" parent="7baba1c4bc27f4b0-8">
          <mxGeometry x="50" y="100" width="10" height="360" as="geometry" />
        </mxCell>
        <mxCell id="_VDTY8d82yGGQfiRo4SU-23" value="13:provideCare()" style="html=1;verticalAlign=bottom;endArrow=open;dashed=1;endSize=8;labelBackgroundColor=none;fontFamily=Verdana;fontSize=12;edgeStyle=elbowEdgeStyle;elbow=vertical;exitX=0;exitY=1;exitDx=0;exitDy=0;exitPerimeter=0;entryX=1.04;entryY=0.973;entryDx=0;entryDy=0;entryPerimeter=0;" edge="1" parent="7baba1c4bc27f4b0-8">
          <mxGeometry x="-0.0216" relative="1" as="geometry">
            <mxPoint x="60.399999999999864" y="451.3600000000001" as="targetPoint" />
            <Array as="points" />
            <mxPoint x="412.5" y="450" as="sourcePoint" />
            <mxPoint as="offset" />
          </mxGeometry>
        </mxCell>
        <mxCell id="7baba1c4bc27f4b0-11" value="1:contactShop()" style="html=1;verticalAlign=bottom;endArrow=block;entryX=0;entryY=0;labelBackgroundColor=none;fontFamily=Verdana;fontSize=12;edgeStyle=elbowEdgeStyle;elbow=vertical;" edge="1" parent="1" source="7baba1c4bc27f4b0-9" target="7baba1c4bc27f4b0-10">
          <mxGeometry x="0.0031" relative="1" as="geometry">
            <mxPoint x="220" y="190" as="sourcePoint" />
            <mxPoint as="offset" />
          </mxGeometry>
        </mxCell>
        <mxCell id="_VDTY8d82yGGQfiRo4SU-14" value="delivery:Delivery" style="shape=umlLifeline;perimeter=lifelinePerimeter;whiteSpace=wrap;html=1;container=1;collapsible=0;recursiveResize=0;outlineConnect=0;rounded=1;shadow=0;comic=0;labelBackgroundColor=none;strokeWidth=1;fontFamily=Verdana;fontSize=12;align=center;" vertex="1" parent="1">
          <mxGeometry x="790" y="80" width="150" height="480" as="geometry" />
        </mxCell>
        <mxCell id="_VDTY8d82yGGQfiRo4SU-15" value="" style="html=1;points=[];perimeter=orthogonalPerimeter;rounded=0;shadow=0;comic=0;labelBackgroundColor=none;strokeWidth=1;fontFamily=Verdana;fontSize=12;align=center;" vertex="1" parent="_VDTY8d82yGGQfiRo4SU-14">
          <mxGeometry x="70" y="300" width="10" height="60" as="geometry" />
        </mxCell>
        <mxCell id="_VDTY8d82yGGQfiRo4SU-21" value="" style="endArrow=classic;html=1;rounded=0;entryX=0;entryY=0;entryDx=0;entryDy=0;entryPerimeter=0;exitX=0.978;exitY=0.4;exitDx=0;exitDy=0;exitPerimeter=0;" edge="1" parent="_VDTY8d82yGGQfiRo4SU-14">
          <mxGeometry width="50" height="50" relative="1" as="geometry">
            <mxPoint x="-276.06999999999994" y="329.99" as="sourcePoint" />
            <mxPoint x="70" y="329.66" as="targetPoint" />
          </mxGeometry>
        </mxCell>
        <mxCell id="_VDTY8d82yGGQfiRo4SU-22" value="&lt;font style=&quot;font-size: 12px;&quot; face=&quot;Verdana&quot;&gt;9:orginizeDelivery()&lt;/font&gt;" style="edgeLabel;html=1;align=center;verticalAlign=middle;resizable=0;points=[];" connectable="0" vertex="1" parent="_VDTY8d82yGGQfiRo4SU-21">
          <mxGeometry x="0.0891" relative="1" as="geometry">
            <mxPoint y="-10" as="offset" />
          </mxGeometry>
        </mxCell>
        <mxCell id="_VDTY8d82yGGQfiRo4SU-24" value="12:" style="html=1;verticalAlign=bottom;endArrow=open;dashed=1;endSize=8;labelBackgroundColor=none;fontFamily=Verdana;fontSize=12;edgeStyle=elbowEdgeStyle;elbow=vertical;exitX=0.226;exitY=1.001;exitDx=0;exitDy=0;exitPerimeter=0;" edge="1" parent="1" source="7baba1c4bc27f4b0-10" target="7baba1c4bc27f4b0-9">
          <mxGeometry x="-0.0216" relative="1" as="geometry">
            <mxPoint x="156.75" y="460.14" as="targetPoint" />
            <Array as="points" />
            <mxPoint x="320" y="460" as="sourcePoint" />
            <mxPoint as="offset" />
          </mxGeometry>
        </mxCell>
      </root>
    </mxGraphModel>
  </diagram>
</mxfile>
